<?xml version="1.0" encoding="UTF-8" standalone="no"?>
<!DOCTYPE svg PUBLIC "-//W3C//DTD SVG 1.1//EN"
 "http://www.w3.org/Graphics/SVG/1.1/DTD/svg11.dtd">
<!-- Generated by graphviz version 2.28.0 (20120305.1131)
 -->
<!-- Title: controllers_diagram Pages: 1 -->
<svg width="551pt" height="557pt"
 viewBox="0.00 0.00 550.90 557.00" xmlns="http://www.w3.org/2000/svg" xmlns:xlink="http://www.w3.org/1999/xlink">
<g id="graph1" class="graph" transform="scale(1 1) rotate(0) translate(4 553)">
<title>controllers_diagram</title>
<polygon fill="white" stroke="white" points="-4,5 -4,-553 547.899,-553 547.899,5 -4,5"/>
<!-- _diagram_info -->
<g id="node1" class="node"><title>_diagram_info</title>
<text text-anchor="start" x="344" y="-149" font-family="Times,serif" font-size="13.00">Controllers diagram</text>
<text text-anchor="start" x="344" y="-133.4" font-family="Times,serif" font-size="13.00">Date: Mar 11 2012 &#45; 04:10</text>
<text text-anchor="start" x="344" y="-117.8" font-family="Times,serif" font-size="13.00">Migration version: 20120311015718</text>
<text text-anchor="start" x="344" y="-102.2" font-family="Times,serif" font-size="13.00">Generated by RailRoady 1.0.7</text>
<text text-anchor="start" x="344" y="-86.6" font-family="Times,serif" font-size="13.00">http://railroady.prestonlee.com</text>
</g>
<!-- ApplicationController -->
<g id="node2" class="node"><title>ApplicationController</title>
<polyline fill="none" stroke="black" points="108,-144.5 286.635,-144.5 "/>
<path fill="none" stroke="black" d="M286.635,-144.5C292.635,-144.5 298.635,-150.5 298.635,-156.5"/>
<polyline fill="none" stroke="black" points="298.635,-156.5 298.635,-247.7 "/>
<path fill="none" stroke="black" d="M298.635,-247.7C298.635,-253.7 292.635,-259.7 286.635,-259.7"/>
<polyline fill="none" stroke="black" points="286.635,-259.7 108,-259.7 "/>
<path fill="none" stroke="black" d="M108,-259.7C102,-259.7 96,-253.7 96,-247.7"/>
<polyline fill="none" stroke="black" points="96,-247.7 96,-156.5 "/>
<path fill="none" stroke="black" d="M96,-156.5C96,-150.5 102,-144.5 108,-144.5"/>
<text text-anchor="middle" x="197.317" y="-241.7" font-family="Times,serif" font-size="14.00">ApplicationController</text>
<polyline fill="none" stroke="black" points="96,-234.9 298.635,-234.9 "/>
<text text-anchor="start" x="104" y="-216.9" font-family="Times,serif" font-size="14.00">_one_time_conditions_valid_78?</text>
<polyline fill="none" stroke="black" points="96,-210.1 298.635,-210.1 "/>
<polyline fill="none" stroke="black" points="96,-186.1 298.635,-186.1 "/>
<text text-anchor="start" x="104" y="-168.1" font-family="Times,serif" font-size="14.00">_layout</text>
<text text-anchor="start" x="104" y="-151.3" font-family="Times,serif" font-size="14.00">current_user</text>
</g>
<!-- PagesController -->
<g id="node3" class="node"><title>PagesController</title>
<polyline fill="none" stroke="black" points="12,-416.5 94.207,-416.5 "/>
<path fill="none" stroke="black" d="M94.207,-416.5C100.207,-416.5 106.207,-422.5 106.207,-428.5"/>
<polyline fill="none" stroke="black" points="106.207,-428.5 106.207,-536.5 "/>
<path fill="none" stroke="black" d="M106.207,-536.5C106.207,-542.5 100.207,-548.5 94.207,-548.5"/>
<polyline fill="none" stroke="black" points="94.207,-548.5 12,-548.5 "/>
<path fill="none" stroke="black" d="M12,-548.5C6,-548.5 0,-542.5 0,-536.5"/>
<polyline fill="none" stroke="black" points="0,-536.5 0,-428.5 "/>
<path fill="none" stroke="black" d="M0,-428.5C0,-422.5 6,-416.5 12,-416.5"/>
<text text-anchor="middle" x="53.1035" y="-530.5" font-family="Times,serif" font-size="14.00">PagesController</text>
<polyline fill="none" stroke="black" points="0,-523.7 106.207,-523.7 "/>
<text text-anchor="start" x="8" y="-505.7" font-family="Times,serif" font-size="14.00">about</text>
<text text-anchor="start" x="8" y="-488.9" font-family="Times,serif" font-size="14.00">help</text>
<text text-anchor="start" x="8" y="-472.1" font-family="Times,serif" font-size="14.00">home</text>
<polyline fill="none" stroke="black" points="0,-465.3 106.207,-465.3 "/>
<polyline fill="none" stroke="black" points="0,-441.3 106.207,-441.3 "/>
<text text-anchor="start" x="8" y="-423.3" font-family="Times,serif" font-size="14.00">_layout</text>
</g>
<!-- RelationshipsController -->
<g id="node4" class="node"><title>RelationshipsController</title>
<polyline fill="none" stroke="black" points="300,-288.5 425.766,-288.5 "/>
<path fill="none" stroke="black" d="M425.766,-288.5C431.766,-288.5 437.766,-294.5 437.766,-300.5"/>
<polyline fill="none" stroke="black" points="437.766,-300.5 437.766,-442.1 "/>
<path fill="none" stroke="black" d="M437.766,-442.1C437.766,-448.1 431.766,-454.1 425.766,-454.1"/>
<polyline fill="none" stroke="black" points="425.766,-454.1 300,-454.1 "/>
<path fill="none" stroke="black" d="M300,-454.1C294,-454.1 288,-448.1 288,-442.1"/>
<polyline fill="none" stroke="black" points="288,-442.1 288,-300.5 "/>
<path fill="none" stroke="black" d="M288,-300.5C288,-294.5 294,-288.5 300,-288.5"/>
<text text-anchor="middle" x="362.883" y="-436.1" font-family="Times,serif" font-size="14.00">RelationshipsController</text>
<polyline fill="none" stroke="black" points="288,-429.3 437.766,-429.3 "/>
<text text-anchor="start" x="296" y="-411.3" font-family="Times,serif" font-size="14.00">create</text>
<text text-anchor="start" x="296" y="-394.5" font-family="Times,serif" font-size="14.00">destroy</text>
<text text-anchor="start" x="296" y="-377.7" font-family="Times,serif" font-size="14.00">index</text>
<text text-anchor="start" x="296" y="-360.9" font-family="Times,serif" font-size="14.00">new</text>
<text text-anchor="start" x="296" y="-344.1" font-family="Times,serif" font-size="14.00">show</text>
<polyline fill="none" stroke="black" points="288,-337.3 437.766,-337.3 "/>
<polyline fill="none" stroke="black" points="288,-313.3 437.766,-313.3 "/>
<text text-anchor="start" x="296" y="-295.3" font-family="Times,serif" font-size="14.00">_layout</text>
</g>
<!-- SessionsController -->
<g id="node5" class="node"><title>SessionsController</title>
<polyline fill="none" stroke="black" points="12,-0.5 109.779,-0.5 "/>
<path fill="none" stroke="black" d="M109.779,-0.5C115.779,-0.5 121.779,-6.5 121.779,-12.5"/>
<polyline fill="none" stroke="black" points="121.779,-12.5 121.779,-103.7 "/>
<path fill="none" stroke="black" d="M121.779,-103.7C121.779,-109.7 115.779,-115.7 109.779,-115.7"/>
<polyline fill="none" stroke="black" points="109.779,-115.7 12,-115.7 "/>
<path fill="none" stroke="black" d="M12,-115.7C6,-115.7 0,-109.7 0,-103.7"/>
<polyline fill="none" stroke="black" points="0,-103.7 0,-12.5 "/>
<path fill="none" stroke="black" d="M0,-12.5C0,-6.5 6,-0.5 12,-0.5"/>
<text text-anchor="middle" x="60.8896" y="-97.7" font-family="Times,serif" font-size="14.00">SessionsController</text>
<polyline fill="none" stroke="black" points="0,-90.9 121.779,-90.9 "/>
<text text-anchor="start" x="8" y="-72.9" font-family="Times,serif" font-size="14.00">create</text>
<text text-anchor="start" x="8" y="-56.1" font-family="Times,serif" font-size="14.00">destroy</text>
<polyline fill="none" stroke="black" points="0,-49.3 121.779,-49.3 "/>
<polyline fill="none" stroke="black" points="0,-25.3 121.779,-25.3 "/>
<text text-anchor="start" x="8" y="-7.3" font-family="Times,serif" font-size="14.00">_layout</text>
</g>
<!-- UsersController -->
<g id="node6" class="node"><title>UsersController</title>
<polyline fill="none" stroke="black" points="156,-288.5 237.428,-288.5 "/>
<path fill="none" stroke="black" d="M237.428,-288.5C243.428,-288.5 249.428,-294.5 249.428,-300.5"/>
<polyline fill="none" stroke="black" points="249.428,-300.5 249.428,-442.1 "/>
<path fill="none" stroke="black" d="M249.428,-442.1C249.428,-448.1 243.428,-454.1 237.428,-454.1"/>
<polyline fill="none" stroke="black" points="237.428,-454.1 156,-454.1 "/>
<path fill="none" stroke="black" d="M156,-454.1C150,-454.1 144,-448.1 144,-442.1"/>
<polyline fill="none" stroke="black" points="144,-442.1 144,-300.5 "/>
<path fill="none" stroke="black" d="M144,-300.5C144,-294.5 150,-288.5 156,-288.5"/>
<text text-anchor="middle" x="196.714" y="-436.1" font-family="Times,serif" font-size="14.00">UsersController</text>
<polyline fill="none" stroke="black" points="144,-429.3 249.428,-429.3 "/>
<text text-anchor="start" x="152" y="-411.3" font-family="Times,serif" font-size="14.00">create</text>
<text text-anchor="start" x="152" y="-394.5" font-family="Times,serif" font-size="14.00">edit</text>
<text text-anchor="start" x="152" y="-377.7" font-family="Times,serif" font-size="14.00">home</text>
<text text-anchor="start" x="152" y="-360.9" font-family="Times,serif" font-size="14.00">show</text>
<text text-anchor="start" x="152" y="-344.1" font-family="Times,serif" font-size="14.00">update</text>
<polyline fill="none" stroke="black" points="144,-337.3 249.428,-337.3 "/>
<polyline fill="none" stroke="black" points="144,-313.3 249.428,-313.3 "/>
<text text-anchor="start" x="152" y="-295.3" font-family="Times,serif" font-size="14.00">_layout</text>
</g>
</g>
</svg>
