<?xml version="1.0" encoding="UTF-8" standalone="no"?>
<!DOCTYPE svg PUBLIC "-//W3C//DTD SVG 1.1//EN"
 "http://www.w3.org/Graphics/SVG/1.1/DTD/svg11.dtd">
<!-- Generated by graphviz version 2.28.0 (20120305.1131)
 -->
<!-- Title: models_diagram Pages: 1 -->
<svg width="511pt" height="366pt"
 viewBox="0.00 0.00 510.54 366.00" xmlns="http://www.w3.org/2000/svg" xmlns:xlink="http://www.w3.org/1999/xlink">
<g id="graph1" class="graph" transform="scale(1 1) rotate(0) translate(4 362)">
<title>models_diagram</title>
<polygon fill="white" stroke="white" points="-4,5 -4,-362 507.538,-362 507.538,5 -4,5"/>
<!-- _diagram_info -->
<g id="node1" class="node"><title>_diagram_info</title>
<text text-anchor="start" x="7.55029" y="-258" font-family="Times,serif" font-size="13.00">Models diagram</text>
<text text-anchor="start" x="7.55029" y="-242.4" font-family="Times,serif" font-size="13.00">Date: Mar 11 2012 &#45; 04:09</text>
<text text-anchor="start" x="7.55029" y="-226.8" font-family="Times,serif" font-size="13.00">Migration version: 20120311015718</text>
<text text-anchor="start" x="7.55029" y="-211.2" font-family="Times,serif" font-size="13.00">Generated by RailRoady 1.0.7</text>
<text text-anchor="start" x="7.55029" y="-195.6" font-family="Times,serif" font-size="13.00">http://railroady.prestonlee.com</text>
</g>
<!-- Relationship -->
<g id="node2" class="node"><title>Relationship</title>
<polyline fill="none" stroke="black" points="257.495,-0.8 366.505,-0.8 "/>
<path fill="none" stroke="black" d="M366.505,-0.8C372.505,-0.8 378.505,-6.8 378.505,-12.8"/>
<polyline fill="none" stroke="black" points="378.505,-12.8 378.505,-55.2 "/>
<path fill="none" stroke="black" d="M378.505,-55.2C378.505,-61.2 372.505,-67.2 366.505,-67.2"/>
<polyline fill="none" stroke="black" points="366.505,-67.2 257.495,-67.2 "/>
<path fill="none" stroke="black" d="M257.495,-67.2C251.495,-67.2 245.495,-61.2 245.495,-55.2"/>
<polyline fill="none" stroke="black" points="245.495,-55.2 245.495,-12.8 "/>
<path fill="none" stroke="black" d="M245.495,-12.8C245.495,-6.8 251.495,-0.8 257.495,-0.8"/>
<text text-anchor="middle" x="312" y="-49.2" font-family="Times,serif" font-size="14.00">Relationship</text>
<polyline fill="none" stroke="black" points="245.495,-42.4 378.505,-42.4 "/>
<text text-anchor="start" x="253.495" y="-24.4" font-family="Times,serif" font-size="14.00">created_at :datetime</text>
<text text-anchor="start" x="253.495" y="-7.6" font-family="Times,serif" font-size="14.00">updated_at :datetime</text>
</g>
<!-- User -->
<g id="node3" class="node"><title>User</title>
<polyline fill="none" stroke="black" points="236.898,-106.4 387.102,-106.4 "/>
<path fill="none" stroke="black" d="M387.102,-106.4C393.102,-106.4 399.102,-112.4 399.102,-118.4"/>
<polyline fill="none" stroke="black" points="399.102,-118.4 399.102,-345.6 "/>
<path fill="none" stroke="black" d="M399.102,-345.6C399.102,-351.6 393.102,-357.6 387.102,-357.6"/>
<polyline fill="none" stroke="black" points="387.102,-357.6 236.898,-357.6 "/>
<path fill="none" stroke="black" d="M236.898,-357.6C230.898,-357.6 224.898,-351.6 224.898,-345.6"/>
<polyline fill="none" stroke="black" points="224.898,-345.6 224.898,-118.4 "/>
<path fill="none" stroke="black" d="M224.898,-118.4C224.898,-112.4 230.898,-106.4 236.898,-106.4"/>
<text text-anchor="middle" x="312" y="-339.6" font-family="Times,serif" font-size="14.00">User</text>
<polyline fill="none" stroke="black" points="224.898,-332.8 399.102,-332.8 "/>
<text text-anchor="start" x="232.898" y="-314.8" font-family="Times,serif" font-size="14.00">created_at :datetime</text>
<text text-anchor="start" x="232.898" y="-298" font-family="Times,serif" font-size="14.00">updated_at :datetime</text>
<text text-anchor="start" x="232.898" y="-281.2" font-family="Times,serif" font-size="14.00">name :string</text>
<text text-anchor="start" x="232.898" y="-264.4" font-family="Times,serif" font-size="14.00">email :string</text>
<text text-anchor="start" x="232.898" y="-247.6" font-family="Times,serif" font-size="14.00">password_digest :string</text>
<text text-anchor="start" x="232.898" y="-230.8" font-family="Times,serif" font-size="14.00">avatar_file_name :string</text>
<text text-anchor="start" x="232.898" y="-214" font-family="Times,serif" font-size="14.00">avatar_content_type :string</text>
<text text-anchor="start" x="232.898" y="-197.2" font-family="Times,serif" font-size="14.00">avatar_file_size :integer</text>
<text text-anchor="start" x="232.898" y="-180.4" font-family="Times,serif" font-size="14.00">avatar_updated_at :datetime</text>
<text text-anchor="start" x="232.898" y="-163.6" font-family="Times,serif" font-size="14.00">dob :date</text>
<text text-anchor="start" x="232.898" y="-146.8" font-family="Times,serif" font-size="14.00">gender :string</text>
<text text-anchor="start" x="232.898" y="-130" font-family="Times,serif" font-size="14.00">location :string</text>
<text text-anchor="start" x="232.898" y="-113.2" font-family="Times,serif" font-size="14.00">about :string</text>
</g>
<!-- User&#45;&gt;Relationship -->
<g id="edge2" class="edge"><title>User&#45;&gt;Relationship</title>
<path fill="none" stroke="#66e082" d="M312,-98.1006C312,-90.9724 312,-84.1275 312,-77.7469"/>
<ellipse fill="none" stroke="#66e082" cx="312" cy="-102.315" rx="4" ry="4"/>
<polygon fill="#66e082" stroke="#66e082" points="312,-77.4788 316.5,-67.4787 312,-72.4788 312,-67.4788 312,-67.4788 312,-67.4788 312,-72.4788 307.5,-67.4788 312,-77.4788 312,-77.4788"/>
</g>
<!-- User&#45;&gt;User -->
<g id="edge4" class="edge"><title>User&#45;&gt;User</title>
<path fill="none" stroke="#2bd077" d="M408.144,-250.383C413.688,-245.959 417,-239.831 417,-232 417,-224.169 413.688,-218.041 408.144,-213.617"/>
<polygon fill="#2bd077" stroke="#2bd077" points="408.017,-250.454 397.095,-251.438 403.659,-252.907 399.302,-255.36 399.302,-255.36 399.302,-255.36 403.659,-252.907 401.51,-259.281 408.017,-250.454 408.017,-250.454"/>
<polygon fill="#2bd077" stroke="#2bd077" points="408.017,-213.546 401.51,-204.719 403.659,-211.093 399.302,-208.64 399.302,-208.64 399.302,-208.64 403.659,-211.093 397.095,-212.562 408.017,-213.546 408.017,-213.546"/>
<text text-anchor="middle" x="459.769" y="-226.4" font-family="Times,serif" font-size="14.00">followed_users</text>
</g>
</g>
</svg>
