<?xml version="1.0" encoding="UTF-8" standalone="no"?>
<!DOCTYPE svg PUBLIC "-//W3C//DTD SVG 1.1//EN"
 "http://www.w3.org/Graphics/SVG/1.1/DTD/svg11.dtd">
<!-- Generated by graphviz version 2.28.0 (20120305.1131)
 -->
<!-- Title: models_diagram Pages: 1 -->
<svg width="1036pt" height="168pt"
 viewBox="0.00 0.00 1036.00 168.00" xmlns="http://www.w3.org/2000/svg" xmlns:xlink="http://www.w3.org/1999/xlink">
<g id="graph1" class="graph" transform="scale(1 1) rotate(0) translate(4 164)">
<title>models_diagram</title>
<polygon fill="white" stroke="white" points="-4,5 -4,-164 1033,-164 1033,5 -4,5"/>
<!-- _diagram_info -->
<g id="node1" class="node"><title>_diagram_info</title>
<text text-anchor="start" x="7.55029" y="-143" font-family="Times,serif" font-size="13.00">Models diagram</text>
<text text-anchor="start" x="7.55029" y="-127.4" font-family="Times,serif" font-size="13.00">Date: Mar 11 2012 &#45; 04:10</text>
<text text-anchor="start" x="7.55029" y="-111.8" font-family="Times,serif" font-size="13.00">Migration version: 20120311015718</text>
<text text-anchor="start" x="7.55029" y="-96.2" font-family="Times,serif" font-size="13.00">Generated by RailRoady 1.0.7</text>
<text text-anchor="start" x="7.55029" y="-80.6" font-family="Times,serif" font-size="13.00">http://railroady.prestonlee.com</text>
</g>
<!-- Interests -->
<g id="node2" class="node"><title>Interests</title>
<ellipse fill="none" stroke="black" cx="268" cy="-117" rx="43.1305" ry="18"/>
<text text-anchor="middle" x="268" y="-111.4" font-family="Times,serif" font-size="14.00">Interests</text>
</g>
<!-- Messages -->
<g id="node3" class="node"><title>Messages</title>
<ellipse fill="none" stroke="black" cx="378" cy="-117" rx="48.3764" ry="18"/>
<text text-anchor="middle" x="378" y="-111.4" font-family="Times,serif" font-size="14.00">Messages</text>
</g>
<!-- Relationship -->
<g id="node4" class="node"><title>Relationship</title>
<ellipse fill="none" stroke="black" cx="474" cy="-18" rx="59.2825" ry="18"/>
<text text-anchor="middle" x="474" y="-12.4" font-family="Times,serif" font-size="14.00">Relationship</text>
</g>
<!-- TimelineUpdates -->
<g id="node5" class="node"><title>TimelineUpdates</title>
<ellipse fill="none" stroke="black" cx="701" cy="-117" rx="77.3099" ry="18"/>
<text text-anchor="middle" x="701" y="-111.4" font-family="Times,serif" font-size="14.00">TimelineUpdates</text>
</g>
<!-- User -->
<g id="node6" class="node"><title>User</title>
<ellipse fill="none" stroke="black" cx="474" cy="-117" rx="28.9087" ry="18"/>
<text text-anchor="middle" x="474" y="-111.4" font-family="Times,serif" font-size="14.00">User</text>
</g>
<!-- User&#45;&gt;Relationship -->
<g id="edge2" class="edge"><title>User&#45;&gt;Relationship</title>
<path fill="none" stroke="#94e7de" d="M474,-90.2271C474,-76.7414 474,-60.2265 474,-46.4956"/>
<ellipse fill="none" stroke="#94e7de" cx="474" cy="-94.6583" rx="4" ry="4"/>
<polygon fill="#94e7de" stroke="#94e7de" points="474,-46.1915 478.5,-36.1915 474,-41.1915 474,-36.1915 474,-36.1915 474,-36.1915 474,-41.1915 469.5,-36.1916 474,-46.1915 474,-46.1915"/>
</g>
<!-- User&#45;&gt;User -->
<g id="edge4" class="edge"><title>User&#45;&gt;User</title>
<path fill="none" stroke="#fcc432" d="M507.226,-128.412C515.142,-127.506 521,-123.702 521,-117 521,-110.298 515.142,-106.494 507.226,-105.588"/>
<polygon fill="#fcc432" stroke="#fcc432" points="507.211,-128.412 497.335,-123.647 502.213,-128.279 497.215,-128.145 497.215,-128.145 497.215,-128.145 502.213,-128.279 497.095,-132.644 507.211,-128.412 507.211,-128.412"/>
<polygon fill="#fcc432" stroke="#fcc432" points="507.211,-105.588 497.095,-101.356 502.213,-105.721 497.215,-105.855 497.215,-105.855 497.215,-105.855 502.213,-105.721 497.335,-110.353 507.211,-105.588 507.211,-105.588"/>
<text text-anchor="middle" x="563.769" y="-111.4" font-family="Times,serif" font-size="14.00">followed_users</text>
</g>
<!-- UserInfo -->
<g id="node7" class="node"><title>UserInfo</title>
<ellipse fill="none" stroke="black" cx="842" cy="-117" rx="45.0398" ry="18"/>
<text text-anchor="middle" x="842" y="-111.4" font-family="Times,serif" font-size="14.00">UserInfo</text>
</g>
<!-- UserInterests -->
<g id="node8" class="node"><title>UserInterests</title>
<ellipse fill="none" stroke="black" cx="967" cy="-117" rx="61.4782" ry="18"/>
<text text-anchor="middle" x="967" y="-111.4" font-family="Times,serif" font-size="14.00">UserInterests</text>
</g>
</g>
</svg>
