<?xml version="1.0" encoding="UTF-8" standalone="no"?>
<!DOCTYPE svg PUBLIC "-//W3C//DTD SVG 1.1//EN"
 "http://www.w3.org/Graphics/SVG/1.1/DTD/svg11.dtd">
<!-- Generated by graphviz version 2.28.0 (20120305.1131)
 -->
<!-- Title: controllers_diagram Pages: 1 -->
<svg width="417pt" height="428pt"
 viewBox="0.00 0.00 417.43 428.20" xmlns="http://www.w3.org/2000/svg" xmlns:xlink="http://www.w3.org/1999/xlink">
<g id="graph1" class="graph" transform="scale(1 1) rotate(0) translate(4 424.2)">
<title>controllers_diagram</title>
<polygon fill="white" stroke="white" points="-4,5 -4,-424.2 414.428,-424.2 414.428,5 -4,5"/>
<!-- _diagram_info -->
<g id="node1" class="node"><title>_diagram_info</title>
<text text-anchor="start" x="200" y="-261" font-family="Times,serif" font-size="13.00">Controllers diagram</text>
<text text-anchor="start" x="200" y="-245.4" font-family="Times,serif" font-size="13.00">Date: Mar 05 2012 &#45; 11:37</text>
<text text-anchor="start" x="200" y="-229.8" font-family="Times,serif" font-size="13.00">Migration version: 20120301114418</text>
<text text-anchor="start" x="200" y="-214.2" font-family="Times,serif" font-size="13.00">Generated by RailRoady 1.0.7</text>
<text text-anchor="start" x="200" y="-198.6" font-family="Times,serif" font-size="13.00">http://railroady.prestonlee.com</text>
</g>
<!-- ApplicationController -->
<g id="node2" class="node"><title>ApplicationController</title>
<polyline fill="none" stroke="black" points="12,-48.5 183.635,-48.5 "/>
<path fill="none" stroke="black" d="M183.635,-48.5C189.635,-48.5 195.635,-54.5 195.635,-60.5"/>
<polyline fill="none" stroke="black" points="195.635,-60.5 195.635,-151.7 "/>
<path fill="none" stroke="black" d="M195.635,-151.7C195.635,-157.7 189.635,-163.7 183.635,-163.7"/>
<polyline fill="none" stroke="black" points="183.635,-163.7 12,-163.7 "/>
<path fill="none" stroke="black" d="M12,-163.7C6,-163.7 0,-157.7 0,-151.7"/>
<polyline fill="none" stroke="black" points="0,-151.7 0,-60.5 "/>
<path fill="none" stroke="black" d="M0,-60.5C0,-54.5 6,-48.5 12,-48.5"/>
<text text-anchor="middle" x="97.8174" y="-145.7" font-family="Times,serif" font-size="14.00">ApplicationController</text>
<polyline fill="none" stroke="black" points="0,-138.9 195.635,-138.9 "/>
<text text-anchor="start" x="8" y="-120.9" font-family="Times,serif" font-size="14.00">_one_time_conditions_valid_8?</text>
<polyline fill="none" stroke="black" points="0,-114.1 195.635,-114.1 "/>
<polyline fill="none" stroke="black" points="0,-90.1 195.635,-90.1 "/>
<text text-anchor="start" x="8" y="-72.1" font-family="Times,serif" font-size="14.00">_layout</text>
<text text-anchor="start" x="8" y="-55.3" font-family="Times,serif" font-size="14.00">current_user</text>
</g>
<!-- PagesController -->
<g id="node3" class="node"><title>PagesController</title>
<polyline fill="none" stroke="black" points="236,-0.5 318.207,-0.5 "/>
<path fill="none" stroke="black" d="M318.207,-0.5C324.207,-0.5 330.207,-6.5 330.207,-12.5"/>
<polyline fill="none" stroke="black" points="330.207,-12.5 330.207,-120.5 "/>
<path fill="none" stroke="black" d="M330.207,-120.5C330.207,-126.5 324.207,-132.5 318.207,-132.5"/>
<polyline fill="none" stroke="black" points="318.207,-132.5 236,-132.5 "/>
<path fill="none" stroke="black" d="M236,-132.5C230,-132.5 224,-126.5 224,-120.5"/>
<polyline fill="none" stroke="black" points="224,-120.5 224,-12.5 "/>
<path fill="none" stroke="black" d="M224,-12.5C224,-6.5 230,-0.5 236,-0.5"/>
<text text-anchor="middle" x="277.104" y="-114.5" font-family="Times,serif" font-size="14.00">PagesController</text>
<polyline fill="none" stroke="black" points="224,-107.7 330.207,-107.7 "/>
<text text-anchor="start" x="232" y="-89.7" font-family="Times,serif" font-size="14.00">about</text>
<text text-anchor="start" x="232" y="-72.9" font-family="Times,serif" font-size="14.00">help</text>
<text text-anchor="start" x="232" y="-56.1" font-family="Times,serif" font-size="14.00">home</text>
<polyline fill="none" stroke="black" points="224,-49.3 330.207,-49.3 "/>
<polyline fill="none" stroke="black" points="224,-25.3 330.207,-25.3 "/>
<text text-anchor="start" x="232" y="-7.3" font-family="Times,serif" font-size="14.00">_layout</text>
</g>
<!-- SessionsController -->
<g id="node4" class="node"><title>SessionsController</title>
<polyline fill="none" stroke="black" points="44,-192.5 141.779,-192.5 "/>
<path fill="none" stroke="black" d="M141.779,-192.5C147.779,-192.5 153.779,-198.5 153.779,-204.5"/>
<polyline fill="none" stroke="black" points="153.779,-204.5 153.779,-312.5 "/>
<path fill="none" stroke="black" d="M153.779,-312.5C153.779,-318.5 147.779,-324.5 141.779,-324.5"/>
<polyline fill="none" stroke="black" points="141.779,-324.5 44,-324.5 "/>
<path fill="none" stroke="black" d="M44,-324.5C38,-324.5 32,-318.5 32,-312.5"/>
<polyline fill="none" stroke="black" points="32,-312.5 32,-204.5 "/>
<path fill="none" stroke="black" d="M32,-204.5C32,-198.5 38,-192.5 44,-192.5"/>
<text text-anchor="middle" x="92.8896" y="-306.5" font-family="Times,serif" font-size="14.00">SessionsController</text>
<polyline fill="none" stroke="black" points="32,-299.7 153.779,-299.7 "/>
<text text-anchor="start" x="40" y="-281.7" font-family="Times,serif" font-size="14.00">create</text>
<text text-anchor="start" x="40" y="-264.9" font-family="Times,serif" font-size="14.00">destroy</text>
<text text-anchor="start" x="40" y="-248.1" font-family="Times,serif" font-size="14.00">new</text>
<polyline fill="none" stroke="black" points="32,-241.3 153.779,-241.3 "/>
<polyline fill="none" stroke="black" points="32,-217.3 153.779,-217.3 "/>
<text text-anchor="start" x="40" y="-199.3" font-family="Times,serif" font-size="14.00">_layout</text>
</g>
<!-- UsersController -->
<g id="node5" class="node"><title>UsersController</title>
<polyline fill="none" stroke="black" points="316,-304.5 397.428,-304.5 "/>
<path fill="none" stroke="black" d="M397.428,-304.5C403.428,-304.5 409.428,-310.5 409.428,-316.5"/>
<polyline fill="none" stroke="black" points="409.428,-316.5 409.428,-407.7 "/>
<path fill="none" stroke="black" d="M409.428,-407.7C409.428,-413.7 403.428,-419.7 397.428,-419.7"/>
<polyline fill="none" stroke="black" points="397.428,-419.7 316,-419.7 "/>
<path fill="none" stroke="black" d="M316,-419.7C310,-419.7 304,-413.7 304,-407.7"/>
<polyline fill="none" stroke="black" points="304,-407.7 304,-316.5 "/>
<path fill="none" stroke="black" d="M304,-316.5C304,-310.5 310,-304.5 316,-304.5"/>
<text text-anchor="middle" x="356.714" y="-401.7" font-family="Times,serif" font-size="14.00">UsersController</text>
<polyline fill="none" stroke="black" points="304,-394.9 409.428,-394.9 "/>
<text text-anchor="start" x="312" y="-376.9" font-family="Times,serif" font-size="14.00">create</text>
<text text-anchor="start" x="312" y="-360.1" font-family="Times,serif" font-size="14.00">show</text>
<polyline fill="none" stroke="black" points="304,-353.3 409.428,-353.3 "/>
<polyline fill="none" stroke="black" points="304,-329.3 409.428,-329.3 "/>
<text text-anchor="start" x="312" y="-311.3" font-family="Times,serif" font-size="14.00">_layout</text>
</g>
</g>
</svg>
