<?xml version="1.0" encoding="UTF-8" standalone="no"?>
<!DOCTYPE svg PUBLIC "-//W3C//DTD SVG 1.1//EN"
 "http://www.w3.org/Graphics/SVG/1.1/DTD/svg11.dtd">
<!-- Generated by graphviz version 2.28.0 (20120305.1131)
 -->
<!-- Title: models_diagram Pages: 1 -->
<svg width="933pt" height="166pt"
 viewBox="0.00 0.00 933.00 166.00" xmlns="http://www.w3.org/2000/svg" xmlns:xlink="http://www.w3.org/1999/xlink">
<g id="graph1" class="graph" transform="scale(1 1) rotate(0) translate(4 162)">
<title>models_diagram</title>
<polygon fill="white" stroke="white" points="-4,5 -4,-162 930,-162 930,5 -4,5"/>
<!-- _diagram_info -->
<g id="node1" class="node"><title>_diagram_info</title>
<text text-anchor="start" x="7.78833" y="-141" font-family="Times,serif" font-size="13.00">Models diagram</text>
<text text-anchor="start" x="7.78833" y="-125.4" font-family="Times,serif" font-size="13.00">Date: Mar 05 2012 &#45; 11:37</text>
<text text-anchor="start" x="7.78833" y="-109.8" font-family="Times,serif" font-size="13.00">Migration version: 20120301114418</text>
<text text-anchor="start" x="7.78833" y="-94.2" font-family="Times,serif" font-size="13.00">Generated by RailRoady 1.0.7</text>
<text text-anchor="start" x="7.78833" y="-78.6" font-family="Times,serif" font-size="13.00">http://railroady.prestonlee.com</text>
</g>
<!-- Interests -->
<g id="node2" class="node"><title>Interests</title>
<ellipse fill="none" stroke="black" cx="268" cy="-115" rx="43.1305" ry="18"/>
<text text-anchor="middle" x="268" y="-109.4" font-family="Times,serif" font-size="14.00">Interests</text>
</g>
<!-- Messages -->
<g id="node3" class="node"><title>Messages</title>
<ellipse fill="none" stroke="black" cx="378" cy="-115" rx="48.3764" ry="18"/>
<text text-anchor="middle" x="378" y="-109.4" font-family="Times,serif" font-size="14.00">Messages</text>
</g>
<!-- Relationship -->
<g id="node4" class="node"><title>Relationship</title>
<ellipse fill="none" stroke="black" cx="474" cy="-18" rx="59.2825" ry="18"/>
<text text-anchor="middle" x="474" y="-12.4" font-family="Times,serif" font-size="14.00">Relationship</text>
</g>
<!-- TimelineUpdates -->
<g id="node5" class="node"><title>TimelineUpdates</title>
<ellipse fill="none" stroke="black" cx="598" cy="-115" rx="77.3099" ry="18"/>
<text text-anchor="middle" x="598" y="-109.4" font-family="Times,serif" font-size="14.00">TimelineUpdates</text>
</g>
<!-- User -->
<g id="node6" class="node"><title>User</title>
<ellipse fill="none" stroke="black" cx="474" cy="-115" rx="28.9087" ry="18"/>
<text text-anchor="middle" x="474" y="-109.4" font-family="Times,serif" font-size="14.00">User</text>
</g>
<!-- User&#45;&gt;Relationship -->
<g id="edge2" class="edge"><title>User&#45;&gt;Relationship</title>
<path fill="none" stroke="#567daf" d="M474,-88.4138C474,-75.5178 474,-59.8618 474,-46.6847"/>
<ellipse fill="none" stroke="#567daf" cx="474" cy="-92.5755" rx="4" ry="4"/>
<polygon fill="#567daf" stroke="#567daf" points="474,-46.314 478.5,-36.314 474,-41.314 474,-36.314 474,-36.314 474,-36.314 474,-41.314 469.5,-36.314 474,-46.314 474,-46.314"/>
</g>
<!-- UserInfo -->
<g id="node7" class="node"><title>UserInfo</title>
<ellipse fill="none" stroke="black" cx="739" cy="-115" rx="45.0398" ry="18"/>
<text text-anchor="middle" x="739" y="-109.4" font-family="Times,serif" font-size="14.00">UserInfo</text>
</g>
<!-- UserInterests -->
<g id="node8" class="node"><title>UserInterests</title>
<ellipse fill="none" stroke="black" cx="864" cy="-115" rx="61.4782" ry="18"/>
<text text-anchor="middle" x="864" y="-109.4" font-family="Times,serif" font-size="14.00">UserInterests</text>
</g>
</g>
</svg>
