<?xml version="1.0" encoding="UTF-8" standalone="no"?>
<!DOCTYPE svg PUBLIC "-//W3C//DTD SVG 1.1//EN"
 "http://www.w3.org/Graphics/SVG/1.1/DTD/svg11.dtd">
<!-- Generated by graphviz version 2.28.0 (20120305.1131)
 -->
<!-- Title: models_diagram Pages: 1 -->
<svg width="381pt" height="198pt"
 viewBox="0.00 0.00 381.00 198.00" xmlns="http://www.w3.org/2000/svg" xmlns:xlink="http://www.w3.org/1999/xlink">
<g id="graph1" class="graph" transform="scale(1 1) rotate(0) translate(4 194)">
<title>models_diagram</title>
<polygon fill="white" stroke="white" points="-4,5 -4,-194 378,-194 378,5 -4,5"/>
<!-- _diagram_info -->
<g id="node1" class="node"><title>_diagram_info</title>
<text text-anchor="start" x="7.78833" y="-157" font-family="Times,serif" font-size="13.00">Models diagram</text>
<text text-anchor="start" x="7.78833" y="-141.4" font-family="Times,serif" font-size="13.00">Date: Mar 05 2012 &#45; 11:37</text>
<text text-anchor="start" x="7.78833" y="-125.8" font-family="Times,serif" font-size="13.00">Migration version: 20120301114418</text>
<text text-anchor="start" x="7.78833" y="-110.2" font-family="Times,serif" font-size="13.00">Generated by RailRoady 1.0.7</text>
<text text-anchor="start" x="7.78833" y="-94.6" font-family="Times,serif" font-size="13.00">http://railroady.prestonlee.com</text>
</g>
<!-- User -->
<g id="node2" class="node"><title>User</title>
<polyline fill="none" stroke="black" points="236.698,-72.6 361.302,-72.6 "/>
<path fill="none" stroke="black" d="M361.302,-72.6C367.302,-72.6 373.302,-78.6 373.302,-84.6"/>
<polyline fill="none" stroke="black" points="373.302,-84.6 373.302,-177.4 "/>
<path fill="none" stroke="black" d="M373.302,-177.4C373.302,-183.4 367.302,-189.4 361.302,-189.4"/>
<polyline fill="none" stroke="black" points="361.302,-189.4 236.698,-189.4 "/>
<path fill="none" stroke="black" d="M236.698,-189.4C230.698,-189.4 224.698,-183.4 224.698,-177.4"/>
<polyline fill="none" stroke="black" points="224.698,-177.4 224.698,-84.6 "/>
<path fill="none" stroke="black" d="M224.698,-84.6C224.698,-78.6 230.698,-72.6 236.698,-72.6"/>
<text text-anchor="middle" x="299" y="-171.4" font-family="Times,serif" font-size="14.00">User</text>
<polyline fill="none" stroke="black" points="224.698,-164.6 373.302,-164.6 "/>
<text text-anchor="start" x="232.698" y="-146.6" font-family="Times,serif" font-size="14.00">created_at :datetime</text>
<text text-anchor="start" x="232.698" y="-129.8" font-family="Times,serif" font-size="14.00">updated_at :datetime</text>
<text text-anchor="start" x="232.698" y="-113" font-family="Times,serif" font-size="14.00">name :string</text>
<text text-anchor="start" x="232.698" y="-96.2" font-family="Times,serif" font-size="14.00">email :string</text>
<text text-anchor="start" x="232.698" y="-79.4" font-family="Times,serif" font-size="14.00">password_digest :string</text>
</g>
<!-- Relationship -->
<g id="node4" class="node"><title>Relationship</title>
<ellipse fill="none" stroke="black" cx="299" cy="-18" rx="59.2825" ry="18"/>
<text text-anchor="middle" x="299" y="-12.4" font-family="Times,serif" font-size="14.00">Relationship</text>
</g>
<!-- User&#45;&gt;Relationship -->
<g id="edge2" class="edge"><title>User&#45;&gt;Relationship</title>
<path fill="none" stroke="#9149c4" d="M299,-64.4702C299,-58.0882 299,-51.8892 299,-46.2262"/>
<ellipse fill="none" stroke="#9149c4" cx="299" cy="-68.5492" rx="4" ry="4"/>
<polygon fill="#9149c4" stroke="#9149c4" points="299,-46.0891 303.5,-36.0891 299,-41.0891 299,-36.0891 299,-36.0891 299,-36.0891 299,-41.0891 294.5,-36.0892 299,-46.0891 299,-46.0891"/>
</g>
</g>
</svg>
